<?xml version="1.0" standalone="no"?>
<!DOCTYPE svg PUBLIC "-//W3C//DTD SVG 20010904//EN"
 "http://www.w3.org/TR/2001/REC-SVG-20010904/DTD/svg10.dtd">
<svg version="1.0" xmlns="http://www.w3.org/2000/svg"
 width="118.000000pt" height="118.000000pt" viewBox="0 0 118.000000 118.000000"
 preserveAspectRatio="xMidYMid meet">
<metadata>
Created by potrace 1.14, written by Peter Selinger 2001-2017
</metadata>
<g transform="translate(0.000000,118.000000) scale(0.100000,-0.100000)"
fill="#000000" stroke="none">
<path d="M567 1168 c-53 -11 -114 -44 -131 -71 -50 -75 -64 -209 -30 -268 36
-61 75 -75 240 -83 87 -5 138 -21 167 -54 24 -27 44 -98 42 -145 -2 -29 0 -35
10 -27 18 15 73 30 88 24 8 -3 11 -25 9 -67 -4 -86 -5 -88 -44 -76 -65 18
-125 24 -254 24 -130 0 -130 0 -205 -37 -41 -20 -85 -48 -97 -61 l-23 -25 48
4 c26 2 125 6 218 8 155 5 174 4 216 -15 l46 -20 33 31 c19 17 57 38 90 47
l57 17 -8 36 c-10 43 -2 158 16 225 23 83 38 212 31 270 -15 144 -120 234
-291 250 -53 5 -61 2 -56 -27 0 -5 -2 -8 -6 -9 -5 0 -20 -2 -35 -4 -24 -3 -26
-1 -25 28 2 30 0 32 -33 33 -19 0 -52 -3 -73 -8z m206 -109 c12 -11 47 -34 78
-49 31 -16 71 -43 88 -60 35 -35 42 -80 14 -81 -46 -1 -89 -10 -107 -22 -12
-7 -55 -14 -96 -15 -41 -1 -86 -4 -100 -7 -14 -3 -59 -8 -100 -11 -71 -6 -76
-5 -101 20 -33 33 -40 74 -20 118 23 48 79 73 164 73 45 0 67 4 67 12 0 42 76
57 113 22z m195 -355 l-3 -104 -27 0 c-14 0 -33 -3 -42 -6 -13 -5 -13 0 -5 30
16 60 17 119 2 149 -13 25 -12 28 8 35 12 5 33 7 46 4 23 -4 24 -6 21 -108z"/>
<path d="M183 1129 c-25 -9 -54 -50 -76 -107 -22 -54 -22 -52 13 -39 20 8 38
8 57 1 27 -9 28 -11 29 -91 2 -75 0 -81 -21 -91 -12 -6 -33 -25 -46 -43 l-23
-32 25 7 c63 19 64 18 67 -71 2 -66 0 -83 -11 -83 -8 0 -21 -8 -30 -18 -19
-21 -23 -37 -7 -27 6 3 19 3 30 0 19 -6 20 -15 20 -231 0 -225 0 -225 -25
-258 -14 -18 -25 -36 -25 -39 0 -4 47 -7 105 -7 58 0 105 2 105 5 0 3 -13 23
-29 46 l-30 41 -1 226 c-1 125 -3 319 -5 431 -2 112 1 215 6 228 5 13 20 28
33 34 24 11 23 12 -42 65 -73 58 -88 65 -119 53z"/>
<path d="M340 839 c0 -41 26 -117 54 -154 33 -43 67 -53 197 -58 82 -4 115
-10 147 -26 23 -12 42 -26 42 -31 0 -6 5 -10 10 -10 19 0 10 56 -12 77 -27 25
-44 30 -123 39 -185 20 -242 49 -293 149 -19 36 -21 38 -22 14z"/>
<path d="M542 544 c-55 -14 -157 -78 -167 -103 -4 -10 -2 -11 7 -4 37 28 130
54 194 55 67 0 148 -15 170 -33 7 -6 14 6 21 36 7 33 7 45 -1 46 -6 0 -20 3
-31 5 -55 12 -145 11 -193 -2z"/>
</g>
</svg>
